<?xml version="1.0" encoding="iso-8859-1"?>
<!-- Generator: Adobe Illustrator 19.0.0, SVG Export Plug-In . SVG Version: 6.00 Build 0)  -->
<svg version="1.1" id="Layer_1" xmlns="http://www.w3.org/2000/svg" xmlns:xlink="http://www.w3.org/1999/xlink" x="0px" y="0px"
	 viewBox="0 0 408.75 408.75" style="enable-background:new 0 0 408.75 408.75;" xml:space="preserve">
<g>
	<path style="fill:#FFBE00;" d="M408.75,204.375c0,112.873-91.502,204.375-204.375,204.375C91.5,408.75,0,317.248,0,204.375
		S91.5,0,204.375,0C317.248,0,408.75,91.502,408.75,204.375"/>
	<path style="fill:#F4502A;" d="M377.747,204.375c0,95.749-77.619,173.379-173.37,173.379c-9.349,0-18.529-0.741-27.48-2.17
		c-82.699-13.17-145.9-84.81-145.9-171.21c0-95.751,77.619-173.37,173.38-173.37c86.391,0,158.03,63.19,171.2,145.88
		C377.007,185.835,377.747,195.024,377.747,204.375"/>
	<path style="fill:#BA3D20;" d="M326.448,127.755L82.31,280.991l-0.002,0.004l94.59,94.59c8.951,1.429,18.13,2.17,27.48,2.17
		c95.751,0,173.37-77.63,173.37-173.379c0-9.351-0.74-18.54-2.17-27.491l0,0L326.448,127.755"/>
	<polygon style="fill:#37B7C4;" points="82.304,127.759 82.304,280.991 82.31,280.991 326.437,280.995 326.448,280.995 
		326.448,127.755 	"/>
	<polyline style="fill:#1CA4BA;" points="326.439,280.991 82.31,280.991 154.878,207.549 158.008,204.382 204.371,251.301 
		250.735,204.375 250.74,204.382 253.863,207.542 326.439,280.991 	"/>
	<polyline style="fill:#408991;" points="326.448,127.755 326.448,127.755 250.738,204.375 250.738,204.38 250.74,204.382 
		253.863,207.542 258,211.729 326.448,140.144 326.448,127.755 	"/>
	<polyline style="fill:#408991;" points="107.987,153.753 107.987,153.905 157.936,204.455 158.008,204.382 107.987,153.753 	"/>
	<polyline style="fill:#317E8B;" points="250.735,204.375 205.198,250.465 175.754,222.341 159.002,203.394 159.002,203.394 
		185.377,230.019 212.001,258.432 264.512,218.518 257.888,211.847 258,211.729 253.863,207.542 250.74,204.382 250.738,204.38 
		250.735,204.375 	"/>
	<polyline style="fill:#1CA4BA;" points="326.444,127.759 250.735,204.375 204.371,251.301 158.008,204.382 82.304,127.759 
		326.444,127.759 	"/>
	<path style="fill:#C29100;" d="M31.101,210.436c1.739,50.646,25.193,95.773,61.355,126.359c-0.002-0.002-0.002-0.002-0.003-0.004
		C56.301,306.204,32.843,261.074,31.101,210.436 M31.07,209.448c0.009,0.322,0.019,0.645,0.03,0.966
		C31.09,210.095,31.079,209.768,31.07,209.448 M31.056,208.938c0.004,0.155,0.008,0.311,0.013,0.465
		C31.064,209.246,31.06,209.095,31.056,208.938 M31.033,207.943c0.006,0.316,0.014,0.629,0.022,0.945
		C31.047,208.573,31.04,208.258,31.033,207.943 M31.024,207.422c0.003,0.155,0.006,0.309,0.009,0.464
		C31.029,207.734,31.026,207.574,31.024,207.422 M31.016,206.935c0.002,0.145,0.004,0.294,0.007,0.439
		C31.02,207.228,31.018,207.082,31.016,206.935 M31.01,206.438c0.002,0.152,0.004,0.299,0.006,0.451
		C31.013,206.741,31.011,206.585,31.01,206.438 M31.004,205.902c0.001,0.152,0.003,0.301,0.005,0.453
		C31.007,206.208,31.005,206.049,31.004,205.902 M31.001,205.429c0.001,0.142,0.002,0.293,0.003,0.436
		C31.003,205.723,31.001,205.571,31.001,205.429 M30.998,204.919c0,0.149,0.001,0.297,0.002,0.446
		C30.999,205.213,30.999,205.072,30.998,204.919 M30.997,204.375c0,0.152,0,0.301,0.001,0.453
		C30.998,204.675,30.997,204.528,30.997,204.375 M298.838,58.974l0.004,0.003L298.838,58.974 M298.037,58.456
		c0.033,0.021,0.061,0.039,0.094,0.061C298.099,58.496,298.07,58.477,298.037,58.456 M297.564,58.153
		c0.045,0.029,0.098,0.063,0.144,0.092C297.659,58.214,297.612,58.183,297.564,58.153 M297.114,57.867
		c0.091,0.058,0.186,0.118,0.277,0.176C297.297,57.983,297.208,57.926,297.114,57.867 M296.734,57.626
		c0.079,0.05,0.157,0.099,0.236,0.149C296.893,57.727,296.81,57.674,296.734,57.626 M296.304,57.356
		c0.1,0.063,0.208,0.13,0.308,0.193C296.51,57.485,296.406,57.42,296.304,57.356 M295.873,57.086
		c0.117,0.073,0.233,0.145,0.349,0.218C296.104,57.231,295.99,57.16,295.873,57.086 M295.462,56.831
		c0.125,0.078,0.24,0.149,0.365,0.227C295.707,56.983,295.583,56.906,295.462,56.831 M295.065,56.587c0.13,0.08,0.26,0.16,0.39,0.24
		C295.324,56.746,295.196,56.667,295.065,56.587 M217.42,31.488c28.31,2.105,54.727,11.011,77.625,25.086
		C272.151,42.498,245.733,33.594,217.42,31.488 M216.928,31.452c0.166,0.012,0.323,0.023,0.488,0.036
		C217.255,31.476,217.091,31.464,216.928,31.452 M215.943,31.385c0.322,0.021,0.645,0.043,0.966,0.066
		C216.588,31.428,216.265,31.406,215.943,31.385 M215.436,31.352c0.156,0.01,0.32,0.02,0.476,0.031
		C215.752,31.372,215.596,31.362,215.436,31.352 M214.948,31.322c0.156,0.009,0.307,0.019,0.463,0.028
		C215.255,31.34,215.104,31.331,214.948,31.322 M214.459,31.293c0.151,0.009,0.312,0.018,0.463,0.027
		C214.768,31.311,214.612,31.302,214.459,31.293 M213.932,31.264c0.156,0.008,0.311,0.017,0.467,0.026
		C214.242,31.281,214.088,31.272,213.932,31.264 M213.461,31.239c0.156,0.008,0.314,0.016,0.47,0.025
		C213.774,31.255,213.618,31.247,213.461,31.239 M212.959,31.214c0.151,0.007,0.305,0.015,0.456,0.023
		C213.265,31.229,213.109,31.221,212.959,31.214 M211.975,31.168c0.308,0.013,0.611,0.027,0.918,0.042
		C212.589,31.196,212.28,31.182,211.975,31.168 M211.446,31.146c0.151,0.006,0.295,0.012,0.447,0.019
		C211.745,31.159,211.594,31.152,211.446,31.146 M210.947,31.127c0.152,0.006,0.297,0.011,0.448,0.017
		C211.248,31.138,211.095,31.133,210.947,31.127 M210.461,31.11c0.157,0.005,0.303,0.011,0.46,0.016
		C210.767,31.12,210.616,31.115,210.461,31.11 M209.934,31.092c0.152,0.005,0.304,0.01,0.455,0.015
		C210.238,31.102,210.085,31.097,209.934,31.092 M209.472,31.078c0.141,0.004,0.283,0.008,0.424,0.013
		C209.755,31.087,209.614,31.082,209.472,31.078 M208.953,31.064c0.147,0.004,0.292,0.008,0.439,0.012
		C209.244,31.072,209.101,31.068,208.953,31.064 M207.962,31.041c0.304,0.006,0.603,0.013,0.907,0.021
		C208.57,31.054,208.262,31.047,207.962,31.041 M207.431,31.031c0.152,0.003,0.292,0.005,0.444,0.008
		C207.727,31.036,207.58,31.034,207.431,31.031 M206.941,31.023c0.142,0.002,0.282,0.004,0.424,0.007
		C207.223,31.028,207.083,31.025,206.941,31.023 M206.438,31.017c0.152,0.002,0.298,0.004,0.451,0.006
		C206.737,31.02,206.59,31.019,206.438,31.017 M205.903,31.011c0.147,0.001,0.308,0.003,0.455,0.005
		C206.206,31.014,206.055,31.013,205.903,31.011 M205.43,31.008c0.142,0.001,0.296,0.002,0.438,0.003
		C205.719,31.01,205.579,31.009,205.43,31.008 M204.921,31.006c0.153,0,0.294,0.001,0.446,0.002
		C205.218,31.007,205.07,31.006,204.921,31.006 M204.377,31.005c-95.76,0-173.38,77.619-173.38,173.37l0,0
		C30.997,108.624,108.617,31.005,204.377,31.005c0.153,0,0.3,0,0.453,0.001C204.678,31.005,204.529,31.005,204.377,31.005"/>
	<path style="fill:#BA3D20;" d="M204.377,31.005c-95.76,0-173.38,77.619-173.38,173.37l0,0c0,0.153,0,0.3,0.001,0.453
		c0,0.029,0,0.062,0,0.091c0,0.153,0.001,0.293,0.002,0.446c0,0.023,0,0.041,0,0.064c0.001,0.142,0.002,0.293,0.003,0.436
		c0,0.013,0,0.024,0,0.037c0.001,0.147,0.003,0.306,0.005,0.453c0,0.026,0.001,0.057,0.001,0.083
		c0.002,0.147,0.004,0.303,0.006,0.451c0,0.016,0,0.03,0.001,0.047c0.002,0.147,0.004,0.292,0.007,0.439
		c0,0.016,0,0.031,0.001,0.048c0.003,0.152,0.006,0.312,0.009,0.464c0,0.019,0.001,0.037,0.001,0.056
		c0.006,0.315,0.014,0.631,0.022,0.945c0,0.016,0.001,0.034,0.001,0.05c0.004,0.157,0.008,0.308,0.013,0.465
		c0,0.016,0.001,0.029,0.001,0.045c0.009,0.319,0.019,0.647,0.03,0.966c0,0.006,0,0.015,0.001,0.021
		c1.741,50.638,25.2,95.768,61.352,126.355c-25.527-30.199-40.916-69.24-40.916-111.876c0-95.751,77.619-173.37,173.38-173.37
		c42.631,0,81.68,15.39,111.87,40.919c-10.928-12.922-23.712-24.221-37.945-33.487l-0.004-0.003
		c-0.235-0.153-0.471-0.306-0.706-0.457c-0.033-0.021-0.061-0.039-0.094-0.061c-0.109-0.07-0.221-0.142-0.33-0.212
		c-0.045-0.029-0.098-0.063-0.144-0.092c-0.056-0.036-0.117-0.074-0.173-0.11c-0.091-0.058-0.186-0.118-0.277-0.176
		c-0.048-0.031-0.096-0.061-0.145-0.092c-0.079-0.05-0.157-0.099-0.236-0.149c-0.041-0.026-0.081-0.051-0.122-0.077
		c-0.1-0.063-0.208-0.131-0.308-0.193c-0.028-0.018-0.054-0.034-0.082-0.051c-0.117-0.073-0.233-0.145-0.349-0.218
		c-0.015-0.01-0.03-0.019-0.045-0.028c-0.125-0.078-0.24-0.149-0.365-0.227c-0.003-0.002-0.004-0.003-0.007-0.004
		c-0.13-0.08-0.26-0.161-0.39-0.24c-0.005-0.003-0.015-0.009-0.02-0.012c-22.897-14.076-49.315-22.981-77.625-25.086
		c-0.003,0,0,0-0.004,0c-0.166-0.012-0.323-0.024-0.488-0.036c-0.006,0-0.012-0.001-0.019-0.001
		c-0.321-0.023-0.645-0.045-0.966-0.066c-0.01-0.001-0.022-0.001-0.032-0.002c-0.156-0.01-0.32-0.021-0.476-0.031
		c-0.006,0-0.019-0.001-0.025-0.002c-0.156-0.01-0.307-0.019-0.463-0.028c-0.01-0.001-0.017-0.001-0.026-0.002
		c-0.151-0.009-0.312-0.018-0.463-0.027c-0.019-0.001-0.042-0.002-0.061-0.003c-0.156-0.009-0.311-0.018-0.467-0.026h-0.001
		c-0.156-0.008-0.313-0.017-0.47-0.025c-0.016-0.001-0.03-0.002-0.046-0.002c-0.151-0.008-0.305-0.015-0.456-0.023
		c-0.022-0.001-0.043-0.002-0.065-0.003c-0.307-0.015-0.61-0.029-0.918-0.042c-0.029-0.001-0.053-0.002-0.082-0.004
		c-0.151-0.006-0.295-0.012-0.447-0.019c-0.019-0.001-0.032-0.001-0.051-0.002c-0.151-0.006-0.297-0.012-0.448-0.017
		c-0.01,0-0.017-0.001-0.026-0.001c-0.157-0.006-0.303-0.011-0.46-0.016c-0.023-0.001-0.05-0.002-0.072-0.002
		c-0.152-0.005-0.304-0.01-0.455-0.015c-0.013,0-0.025-0.001-0.038-0.001c-0.141-0.004-0.283-0.009-0.424-0.013
		c-0.026-0.001-0.054-0.002-0.08-0.002c-0.147-0.004-0.292-0.008-0.439-0.012c-0.029-0.001-0.055-0.001-0.084-0.002
		c-0.304-0.008-0.603-0.015-0.907-0.021c-0.029-0.001-0.058-0.001-0.087-0.002c-0.152-0.003-0.292-0.006-0.444-0.008
		c-0.023,0-0.044-0.001-0.067-0.001c-0.142-0.002-0.282-0.005-0.424-0.007c-0.016,0-0.036-0.001-0.052-0.001
		c-0.152-0.002-0.298-0.004-0.451-0.006c-0.026,0-0.054-0.001-0.08-0.001c-0.147-0.002-0.308-0.003-0.455-0.005
		c-0.01,0-0.025,0-0.035,0c-0.142-0.001-0.296-0.002-0.438-0.003c-0.019,0-0.044,0-0.063,0c-0.153-0.001-0.293-0.001-0.446-0.002
		c-0.029,0-0.062,0-0.091,0C204.677,31.005,204.53,31.005,204.377,31.005"/>
</g>
<g>
</g>
<g>
</g>
<g>
</g>
<g>
</g>
<g>
</g>
<g>
</g>
<g>
</g>
<g>
</g>
<g>
</g>
<g>
</g>
<g>
</g>
<g>
</g>
<g>
</g>
<g>
</g>
<g>
</g>
</svg>
